<?xml version="1.0" encoding="utf-8"?>
<!-- Generator: Adobe Illustrator 21.1.0, SVG Export Plug-In . SVG Version: 6.00 Build 0)  -->
<svg version="1.1" id="Layer_1" xmlns="http://www.w3.org/2000/svg" xmlns:xlink="http://www.w3.org/1999/xlink" x="0px" y="0px"
	 viewBox="0 0 221.7 370" style="enable-background:new 0 0 221.7 370;" xml:space="preserve">
<style type="text/css">
	.st0{fill:#ED6047;}
	.st1{fill:#BFC79F;}
	.st2{fill:#E0E0AE;}
	.st3{fill:#504869;}
	.st4{fill:#20C05C;}
	.st5{fill:#1B1C38;}
	.st6{fill:#C94E37;}
	.st7{fill:#C0C7A0;}
	.st8{fill:#00A6CE;}
	.st9{fill:#FFFFFF;}
	.st10{fill:#484A69;}
	.st11{fill:#98C4E2;}
</style>
<title>basic-plan</title>
<path class="st0" d="M81.9,148.8c-4,7-7.2,12.4-7.9,13.1c-1.8,1.6-6.3,3.7-9.3-0.6s-5.2-22.4-6.4-24.2c-1.2-1.8-3.2-2.1-5.8-5
	s-1.6-8.1-1.2-11s9.8,1.9,12,9.3c1.4,4.6,3.7,8.8,6.8,12.4c0,0,0.5-1.3,1.3-3.4C77.8,134.2,84.3,136.7,81.9,148.8z"/>
<path class="st1" d="M85.3,142.7c-1.2,2.1-2.3,4.2-3.4,6.1c-0.3-2.2-1.3-6.2-4.2-8.3c-1.8-1.3-4.9-1.3-6.4-1.1
	c0.7-1.8,1.6-4.1,2.6-6.8C79.6,125.4,88.4,129.1,85.3,142.7z"/>
<path class="st2" d="M85.3,142.7c-0.2-1.8-1.1-6.7-4.3-9c-2.2-1.6-6.1-1.2-7-1.1c4.5-11.2,11.5-28,14.9-31.1
	c5.1-4.6,17.7-1.5,9.5,16.2C95.9,123.2,90.5,133.4,85.3,142.7z"/>
<path class="st3" d="M47.2,103.4l13.6-3.2c0.7-0.2,1.5,0.2,1.7,0.9l7.2,25.8c0.2,0.6-0.3,1-0.9,1.1l-12.2,1.7
	c-0.6,0.1-1.2-0.2-1.4-0.7l-8.7-24.1c-0.2-0.6,0.1-1.2,0.7-1.4C47.1,103.4,47.1,103.4,47.2,103.4z"/>
<path class="st4" d="M56.4,108.8c-2.2,0.3-3.3,2.6-2.1,4.8c1.1,2.2,3.6,3.1,5.3,1.1C61.5,112.4,58.6,108.6,56.4,108.8z"/>
<path class="st0" d="M51.1,128.1c-0.1-1.1,0.4-2.6-0.4-3.7c-0.8-1.1-1.2-1.8-0.8-3.3c0.4-2.2,1-4.3,1.7-6.4c0.9-2.8,1.7-2.4,1.9-0.2
	c0.1,1.5-0.1,3.1-0.4,4.6c0.5-0.3,1-0.6,1.4-1c1.4-1.3,2.5-1.5,3.3-2.5c0.8-1,2-0.9,1.7,0.8c-0.3,1.7-0.8,1.9-0.8,1.9
	s1.9-0.9,1.7,1.2c-0.2,2.2-2.2,2.5-2.9,4.1c-0.7,1.7,0.2,3.1,2.1,5.8c1.4,2.1-1.5,3.8-3.3,3.5C53.5,132.6,51.4,130.6,51.1,128.1z"/>
<path class="st5" d="M96.4,160.6c0,0-1.6,25.3,7.7,48.9s31.4,45.1,45.9,54.9c14.5,9.8,31.5,20.3,36,24.7c4.5,4.3,7,7,7,7
	s-1.2,5.5-1.8,8.2c-1.1,4.9-3.6,9.3-5.2,11.2c-1.8,2-2.6,4.4,1.4,2.9c2-0.7,5.5-3.8,7.3-7.3c1.7-3.4,0.6-9.5,1.9-12.2
	c1.3-2.7,2.1-5.8,2.1-6.6s-2.1-0.1-4.3-1.2c-2.2-1.1-2.9-3.9-2.9-3.9s6.1-6.4,2.9-17.6c-3.3-11.2-6.8-14.5-8.9-14.5
	c-2.1,0-8,3.6-10.1,2.3c-2.2-1.3-4.6-12-8.7-12.9c-4.1-0.8-9.6-1.3-13.7-7.9c-4.1-6.6-25.7-67.5-25.7-67.5L96.4,160.6z"/>
<path d="M141.3,240.8c3.9,9.8,3.9,14.5-1.9,10.8c-5.8-3.8-16.2-16.8-24.6-27.4s-14.8-30.7-13.3-33c0.7-1.1,4.2,0.8,8.9-0.2
	c7-1.5,14.4-7.6,23.6-2.5C145,194.7,128.6,208.6,141.3,240.8z"/>
<path class="st5" d="M134.2,152.3c0,0,14.7,31.3,14.7,34.2c0,2.8-7.8,25-18.8,43.5s-22.5,30.6-24.2,35.2c-1.7,4.6,0.9,6.8-2.9,11.8
	c-3.8,5-8.1,7.5-9.5,10.8c-1.4,3.3-2,15-4.6,18.2s-10.1,5.3-11.2,7.5s2.7,6.3-0.8,9.5c-3.5,3.3-18.2-2.9-18.2-2.9s-3.1,6.2-3.7,8.3
	s-1.5,5-2.5,5.2c-1,0.2-3.2-3.5-5-4.8c-1.7-1.3-9.6-4.5-12.4-11.8c-2.9-7.3-1.9-10.4-0.4-8.5c1.4,1.9,4.7,7.7,8.3,10.8
	c3.6,3.1,8.9,4.6,8.9,4.6s24.4-58.1,29.2-67.5c4.7-9.5,30.4-65.9,34.4-77.3C119.4,167.7,134.2,152.3,134.2,152.3z"/>
<path class="st2" d="M124.7,87.6c-3.8,7-7.1,14.4-9.9,21.9c-5.4,15.4-8.9,32.5-8.9,32.5s-6.8-11.4-8.7-24.7
	c-1.5-10.7,1.7-23.5,1.9-24.2c1.7-1.2,3.5-2.4,5.4-3.4c0.6-1.4,1.1-2.7,1.5-3.8c0,0,0.6-3.4,6.8-6.5c6.1-3.1,7.6,2,7.6,2
	c-0.1,1.6-0.1,3.5-0.1,5.7C121.7,87.2,123.2,87.3,124.7,87.6z"/>
<path class="st3" d="M120.6,169.5c-11.6,2.5-22.7,0.3-25.9-1.7c-3.1-2-1.1-6.9-3.3-13.7s-8-25.2-7.3-31.7c0.7-6.5,2.1-18.7,5.4-21.5
	c3-2.8,6.2-5.4,9.5-7.8c-0.2,0.7-3.4,13.5-1.9,24.2c1.9,13.3,8.7,24.7,8.7,24.7s3.5-17.2,8.9-32.5c2.7-7.5,6-14.8,9.9-21.9
	c1.7,0.3,3.4,0.6,5.2,1c6.9,1.3,9,2.7,8.7,7s-4.9,36-5.2,40.8c-0.3,4.8,4.8,4.3,5.8,7s-0.8,4.5-0.8,6.6c0,2.2,3,0.6,4.3,5.2
	C144,159.8,132.2,167,120.6,169.5z"/>
<path class="st6" d="M174.2,192.7c2.2,2.8,3.7,5.3,4.3,7.5s2.4,3.9,3.3,3.9c1,0.1,0.6-0.6,0.6-0.6s2.3,4,3.9,3.9
	c1.6-0.1,1.3-1-0.2-3.7c-1.5-2.8-3.5-8.7-3.5-8.7l-4.3-4.4C178.3,190.6,172,189.9,174.2,192.7z"/>
<path class="st0" d="M193.6,202.3c-2.2,0.9-6.8,0.3-10.8-2.9c-4-3.2-5.9-5.5-7-5.4c-1.1,0.1-4.3,5.3-5.4,6c-1.1,0.7-4.2,2.3-4.6,1.5
	s2.8-3.4,2.9-5.2c0.1-1.7-0.5-3.6,1-4.8c1.5-1.2,3.8-5.4,3.5-8.3c-0.2-2.9-7.2-29.5-14.5-41c-2-3.2-4.2-6.3-6.4-9.3
	c-2.5-13.5,2.7-15.6,12.9-12.2c5.5,6.9,9.8,12.7,10.8,14.9c2.9,6,3.3,46.4,5.6,50.6c2.3,4.2,2.8,10,5.3,11.9
	C189.7,199.8,195.2,201.7,193.6,202.3z"/>
<path class="st7" d="M165.4,120.6c-0.9,2.5-2.4,5.6-4.7,7.9c-2.3,2.2-5.1,3.7-8.2,4.3c-1.8-2.4-3.6-4.8-5.5-7.1
	c-0.7-11.3,4.3-14.2,12.9-11.9C161.8,116.2,163.7,118.5,165.4,120.6z"/>
<path class="st2" d="M154.7,121.7c-2.3,1.9-4.9,3.3-7.7,4.1c-4.1-4.9-8.5-9.6-13.2-13.9c-9.4-8.5-8.5-27,1.9-21.8
	c5.4,2.7,15.4,13.3,24.2,23.7C158.9,116.2,157.2,119.5,154.7,121.7z"/>
<path class="st8" d="M108.2,92.5l-3.5,3.5l0.4,5.2c0,0-8,17.4-3.3,23.8c4.7,6.4,10.7,2.8,14.7,3.7c4,0.9,1.3,5.1,6.2,6.9
	c4.9,1.8,16-0.2,16-0.2l6-7.5l-7.4-4.8c0,0-6.3,1.4-10.7,0.4s-5.4-6.1-8.4-6.6s-6.8,3.9-9.5,1.2s-0.6-16.6-0.6-16.6l4.1-5.4
	L108.2,92.5z"/>
<path class="st8" d="M122.7,68.8c-0.2,3.1,0.7,4.2,0.4,5.2c-0.2,1-2.8,2-4.1,0.6c-1.2-1.2-2.3-2.4-3.4-3.8c2.3,0,3.1-2.6,2.9-5.6
	c-0.2-3.5-3.5-3.7-4.3-1.7c-0.8,2-1.6,2.1-2.3,0.2c-2-6,1.2-6.3-2.3-7c-1.1-0.3-3.4,1.6-5.6,0.4c-3-1.6-5.2,2.9-5.2,2.9
	s-3.3-1.8-4.8-7s-0.6-5.1,0-4.8c0.6,0.3,2.3,1.4,2.5,1.2c0.2-0.2-1-7.4,0.4-6.6c1.1,0.7,2.3,1.5,3.3,2.3c0.3,0.1,0.6-3.7,1.4-3.5
	c1.5,0.4,1.3,2,4.8,5c2,1.8,13.7,6.4,15.7,9.9C124.3,60.2,122.9,65.8,122.7,68.8z"/>
<path class="st9" d="M97.6,61.6c0.4,0.6-0.8,3.7-1.2,5.2c-0.5,1.4-2.1,2.2-2.5-0.2c-0.4-2.4-0.4-3.8,0.6-4.4
	C95.5,61.7,97.2,60.9,97.6,61.6z"/>
<path class="st0" d="M120.3,81.3l-11.5,8.2l-2.8-3.7c0.4-1.3,0.6-2.4,0.3-3.2c-0.7-2.4-2.9-0.7-8.1-3.9c-3.3-2-2.7-5.4-1.9-10.3
	c-1.3-0.6-2.5-1.4-2.4-2.2c0.1-0.7,1.7-1.7,3.4-2.4c0.3-1,0.6-2,0.9-2.8c2-5.2,7.8-9.6,16.4-7.7c8.6,2,6.3,17.7,6,21.9
	C120.5,77.3,120.4,79.1,120.3,81.3z"/>
<path class="st10" d="M118.9,74.6c-1.2-1.2-2.3-2.4-3.4-3.8c2.3,0,3.1-2.6,2.9-5.6c-0.2-3.5-3.5-3.7-4.3-1.7c-0.8,2-1.6,2.1-2.3,0.2
	c-2-6,1.2-6.3-2.3-7c-1.1-0.3-3.4,1.6-5.6,0.4c-3-1.6-5.2,2.9-5.2,2.9L98.7,60c2.4-4.7,7.9-8.4,15.9-6.6c8.5,1.9,6.3,17.3,6,21.8
	C120,75.3,119.4,75.1,118.9,74.6z"/>
<path class="st10" d="M97,62.8c0,0,7.4-2.4,8.9-2.9c1.5-0.5,8.9,2.7,8.9,2.7l-0.6,0.8c0,0-6.1-2.7-8.1-2.5c-2,0.2-9.3,2.9-9.3,2.9
	L97,62.8z"/>
<path class="st11" d="M99.9,60.1c-0.5,0.9-0.7,6.7,1.9,7.5c4.3,1.2,6.1-6.9,5.6-8.3S100.8,58.5,99.9,60.1z"/>
<path class="st4" d="M47.5,84.3l4.3,5.1l10.3-12.1L59,75.7l-7.4,9.5l-2.7-3.8L47.5,84.3z"/>
<path class="st4" d="M54,60.3c1.2,2.5,2.7,4.8,4.5,6.9l16.3-7.2c-2-1.7-3.8-3.7-5.2-6c-1.2-2.1-2-4.3-2.4-6.6l-2.9,1l0.2,1.9
	c0.8,0.2,1.4,1,1.4,1.8c0,1.6-1.8,2.1-2.7,1c-1.4-1.6-0.1-2.4-0.1-2.4l-0.1-1.8l-5.5,1.8l0.2,2c0.8,0.2,1.4,1,1.4,1.8
	c0,1.6-1.8,2.1-2.7,1c-1.4-1.6-0.1-2.4-0.1-2.4L56.1,51l-4.2,1.4C52.2,55.1,53,57.7,54,60.3z"/>
<path class="st4" d="M44.4,46c-1.3-1.1-4.3-5.9-4.3-5.9s4-1.6,5,1C46.2,43.7,44.8,46.3,44.4,46z M43.5,49.2
	c-0.1,1.5-1.2,6.8-5.4,8.7c0.1,1.6,0.1,3.2-0.6,3.4s-0.9-1.4-1-2.9c-1,0.2-2,0.2-3.1,0c-3.8-0.5-6.1-1.8-7.2-3.5
	c-0.9,0.8-2,1.6-2.8,1.2c-1.1-0.6,1.2-2,2.1-2.5c-0.7-1.7-0.6-3.7-0.2-5.7c0.7-3.9,4.3-7.9,9.7-7.4C42.3,41.2,43.6,47.3,43.5,49.2z
	 M36.4,43.4c-2.3-0.8-7,0.2-8.4,4c-1.4,3.9,0.6,7.3,4,8.1s7.7-0.9,8.5-4.6C41.3,47.3,38.7,44.2,36.4,43.4z M30.8,46.5l2.6,2.5
	l5.3-1.2l-6.2,3.9L30.8,46.5z M26.9,42.2c0,0-0.6-4.1,2.3-5.4s5.4,0.8,4.9,1.7S26.9,42.2,26.9,42.2z"/>
</svg>
