<?xml version="1.0" encoding="utf-8"?>
<!-- Generator: Adobe Illustrator 19.1.0, SVG Export Plug-In . SVG Version: 6.00 Build 0)  -->
<svg version="1.1" id="Layer_1" xmlns:ev="http://www.w3.org/2001/xml-events"
	 xmlns="http://www.w3.org/2000/svg" xmlns:xlink="http://www.w3.org/1999/xlink" x="0px" y="0px" viewBox="-456 299 250 310"
	 enable-background="new -456 299 250 310" xml:space="preserve">
<path fill="#EBF1F7" d="M-395.085,401.498l49.614-1.458l0.291,4.471l-49.322,0.583L-395.085,401.498z"/>
<path fill="#D7E0EB" d="M-384.872,399.622l12.578-0.715c0,0,5.382-17.448,5.877-17.895s21.886-2.195,22.344-1.575
	s-6.069,20.111-6.526,21.073c-0.458,0.962-34.557,0.849-34.557,0.849L-384.872,399.622z"/>
<path fill="#EBF1F7" d="M-353.031,398.633l-18.381,0.125l5.186-15.79l18.349-1.391L-353.031,398.633z"/>
<path fill="#D6DFE9" d="M-385.715,398.995c0,0,3.045-1.195,4.127-0.858c0.924,0.287,1.668,1.124,1.987,1.075
	c0.569-0.087-0.328-1.184-0.328-1.184s1.052,1.439,1.68,1.351c0.628-0.088,0.535-0.708-0.472-2.165
	c-1.007-1.457-3.446-1.053-3.446-1.053L-385.715,398.995z"/>
<path fill="#D4DBE3" d="M-360.368,399.521c-0.934-0.013-1.896-2.823-1.896-2.823s0.839,2.878-0.038,2.626
	c-0.877-0.252-0.822-1.677-1.064-2.001s-0.999,0.117-0.428,0.757c0.622,0.695,0.524,1.725-0.912,0.731
	c-1.251-0.866-0.775-3.835-0.775-3.835l4.154,0.506C-361.327,395.482-359.433,399.534-360.368,399.521z M-377.07,399.148
	c-0.702-0.362-2.278-1.902-2.809-2.091c-0.532-0.189-2.275,0.038-2.659,0.642c-0.383,0.604,1.03,0.854,2.365,1.289
	c1.335,0.436,1.931,1.493,0.706,1.399c-1.226-0.094-2.576-0.463-3.399-0.078c-0.823,0.385-2.546,0.94-4.709,0.828
	c-2.163-0.111-8.242-0.424-8.242-0.424l2.363-4.355c0,0,5.41,2.128,6.523,1.699c1.113-0.43,2.308-2.341,4.799-2.575
	c2.491-0.235,2.294-0.122,4.294,1.583C-375.839,398.77-376.369,399.51-377.07,399.148z"/>
<path fill="#D4DBE3" d="M-400.88,429.257c2.164,3.508,3.438,6.625,3.032,9.109c-0.406,2.484-2.045,5.019-0.879,7.643
	c1.167,2.623,2.116,2.347,2.116,2.347s-1.474,1.522-0.694,4.051c0.78,2.53,3.747,3.636,5.872,3.027
	c2.124-0.609,4.217-1.811,4.319-6.492c0.103-4.681,1.198-13.739-0.83-19.797C-389.972,423.086-403.044,425.75-400.88,429.257z"/>
<path fill="#DDE4EC" d="M-358.239,399.728c-0.408,0.287-1.026-0.167-1.303-1.138c-0.277-0.971-0.823-1.015-0.823-1.015
	s-1.43,0.161-2.337,0.074c-0.907-0.087-1.763-1.648-1.763-1.648s0.647,9.904-7.116,8.793c-2.33-0.334-4.776-1.988-7.022-4.273
	c-1.766-1.796-3.408-3.982-4.776-6.226c-2.397,2.336-6.15,3.61-8.503,11.195c-0.605,1.95-1.232,3.827-1.609,5.485
	c-0.656,2.883-0.873,4.994-0.873,4.994s9.682-3.326,21.914-2.668c3.874,0.209,6.876,2.302,7.132,6.887
	c0.256,4.586-6.479,13.638-7.737,16.243c-1.258,2.604-0.096,6.517-2,8.655c-1.903,2.138-4.188,2.605-5.067,4.021
	c-0.879,1.416-0.375,4.752-3.121,5.873c-2.747,1.12-4.252-0.511-4.252-0.511s-2.117,1.839-2.869,2.869
	c-0.753,1.03-0.184,1.698,0.454,4.402c0.639,2.705,2.789,4.646,2.717,5.784c-0.072,1.138-1.114,0.853-2.792-0.533
	c-1.678-1.386-2.504-5.614-3.127-7.264c-0.623-1.651-1.665-2.009-1.509-2.803c0.156-0.793,0.572-1.239,1.82-1.366
	c1.248-0.127,4.129-2.482,3.623-4.29c-0.506-1.807-2.797-2.091-1.58-7.088c1.217-4.996,7.476-8.483,8.621-10.747
	c1.146-2.264,1.592-4.492,1.592-4.492s-10.99,1.444-19.147,1.601c-8.128,0.156-16.913-0.04-15.806-11.963
	c0.284-3.055,1.163-6.718,2.361-10.538c1.461-4.655,3.398-9.534,5.315-13.836c-2.616-0.305-5.435-1.715-7.08-6.151
	c-2.15-5.798,1.864-9.353,2.079-10.208c0.216-0.856-6.141-4.983-4.712-10.461c2.161-8.287,8.292-6.029,9.043-7.611
	c0.477-1.005-1.471-1.516,0.135-6.416c1.607-4.9,6.944-7.648,12.53-7.335c5.585,0.314,7.144,4.747,7.144,4.747
	s1.729-2.538,4.851-1.697c3.123,0.842,2.462,5.701,3.535,6.897s2.031-1.338,6.502,0.237c5.593,1.971,2.068,7.557,0.073,6.578
	c0.697,0.753,1.219,1.763,1.372,3.13c0.151,1.342,0.052,2.614-0.205,3.777c0.462,0.599,0.924,1.265,0.906,1.514
	c-0.021,0.292-0.919,0.566-1.649,0.742c-0.729,1.627-1.739,2.867-2.653,3.513c-1.854,1.312-2.908,0.128-4.383,0.164
	c-0.45,0.011-1.036,0.457-1.633,1.068c1.134,0.447,1.926,0.796,1.926,0.796l-2.209,2.636c0.573,0.718,1,1.516,1.315,2.356
	c2.073,2.199,3.95,5.715,5.007,7.676c0.873,1.62,1.955,3.195,2.91,4.472c1.291,1.724,2.35,2.902,2.35,2.902s1.47-3.743,2.949-4.422
	c1.48-0.679,5.297-0.123,6.497,0.334c1.2,0.458,1.5,2.019,2.163,3.323C-358.397,398.07-357.832,399.44-358.239,399.728z"/>
<path fill="#D4DBE3" d="M-393.019,452.238c0,0,1.833,3.072,1.195,5.122c-0.589,1.894,1.749,1.368,3.322,3.48
	c1.523,2.046,3.268,5.212,5.834,5.652s2.492-0.725,0.87-1.804c-1.621-1.079-3.676-3.489-4.69-5.204
	c-1.015-1.715-2.377-2.945-2.377-2.945l-2.053-5.458L-393.019,452.238z"/>
<path fill="#D6DFE9" d="M-373.839,362.725c-1.815-1.165-2.861,0.18-2.538,2.107c0.612,3.651-1.056,6.753-5.67,8.175
	c-1.722,0.531-2.109,0.857-2.059,6.024c0.049,5.168-3.964,12.527-9.264,15.678c-5.299,3.151-7.369-0.727-8.406-1.017
	c-0.543-0.152-3.175,0.864-6.055,0.525c2.671-5.994,5.305-10.854,6.567-12.371c2.128-2.559,5.615-4.714,9.527-5.132l0.441-1.556
	c0,0,0.823-0.452,2.463-0.38c0.744-1.15,1.483-2.373,1.906-3.288c1.08-2.339,0.65-4.139,1.736-7.306
	c1.085-3.166,4.991-3.669,6.982-3.436c1.352,0.159,3.232,0.662,4.506,2.05C-373.749,362.777-373.794,362.753-373.839,362.725z"/>
<path fill="#EBF1F7" d="M-417.61,428.127l25.923,0.583v6.025l-26.214,1.167L-417.61,428.127z"/>
<path fill="#EAEFF5" d="M-377.651,508.328l132.301,0.525L-210,407.814l-12.075-9.981l-50.75,2.626l-26.251,73.372l-5.25,18.562
	h-72.1L-377.651,508.328z"/>
<path fill="#EF9E8E" d="M-301.876,412.192c0,0-10.714,4.204-20.475,12.258c-9.76,8.053-18.025,16.46-18.025,16.46l16.625,7.53
	L-301.876,412.192z"/>
<path fill="#EF9E8E" d="M-324.801,447.214c0,0,12.893-28.95,18.9-32.921c6.008-3.971,20.508-9.257,36.226-8.405
	c15.717,0.852,35.219,4.107,40.425,9.456s5.257,20.532-4.725,30.469c-9.983,9.938-12.861,15.421-14.175,21.539
	c-1.314,6.117,4.003,11.372-0.175,14.534c-7.764,5.876-35.591,2.643-52.501-6.129C-317.735,466.985-324.801,447.214-324.801,447.214
	z"/>
<path fill="#B692A5" d="M-277.328,418.203c6.807,0.359,12.736,2.523,18.288,7.004c5.857,4.726,10.355,6.186,17.07,6.538
	c5.673,0.298,10.057,1.654,14.304,4.369c-0.214,0.555-0.448,1.108-0.702,1.657c-3.744-2.723-6.978-3.779-11.988-4.041
	c-8.465-0.446-14.608-2.799-21.208-8.123c-4.343-3.506-8.576-5.127-14.15-5.419c-8.546-0.45-15.033-2.934-21.694-8.309
	c-0.508-0.41-0.99-0.784-1.455-1.129c0.649-0.26,1.323-0.517,2.022-0.769c0.637,0.46,1.286,0.957,1.957,1.499
	C-289.224,416.047-284.316,417.837-277.328,418.203z M-278.874,422.246c6.807,0.358,12.735,2.523,18.288,7.004
	c5.857,4.725,10.355,6.185,17.07,6.538c5.543,0.29,9.856,1.592,14.013,4.184c-0.286,0.5-0.59,0.995-0.912,1.484
	c-3.538-2.459-6.702-3.433-11.487-3.684c-8.465-0.446-14.608-2.798-21.209-8.123c-4.343-3.505-8.576-5.126-14.149-5.419
	c-8.546-0.449-15.034-2.934-21.694-8.309c-1.691-1.364-3.098-2.348-4.505-3.061c0.565-0.299,1.168-0.6,1.809-0.901
	c1.692,0.911,3.378,2.077,5.22,3.563C-290.77,420.089-285.862,421.879-278.874,422.246z M-280.42,426.288
	c6.807,0.358,12.735,2.523,18.287,7.004c5.858,4.725,10.355,6.186,17.071,6.538c5.164,0.271,9.261,1.419,13.159,3.672
	c-0.354,0.442-0.723,0.876-1.111,1.303c-3.134-1.953-6.127-2.765-10.434-2.991c-8.466-0.444-14.609-2.797-21.209-8.123
	c-4.343-3.504-8.576-5.126-14.149-5.419c-8.547-0.448-15.034-2.934-21.695-8.309c-2.715-2.19-4.701-3.4-7.127-4.081
	c0.458-0.515,0.894-0.944,1.303-1.273c2.825,0.999,5.387,2.565,8.349,4.955C-292.317,424.133-287.409,425.922-280.42,426.288z
	 M-281.993,430.4c6.807,0.358,12.735,2.523,18.287,7.004c5.858,4.726,10.356,6.185,17.071,6.538
	c4.511,0.237,8.207,1.143,11.667,2.869c-0.409,0.415-0.802,0.82-1.186,1.22c-2.605-1.322-5.281-1.916-8.867-2.105
	c-8.465-0.445-14.609-2.798-21.209-8.123c-4.342-3.505-8.576-5.127-14.149-5.419c-8.547-0.449-15.034-2.933-21.695-8.308
	c-3.173-2.561-5.351-3.784-8.398-4.385c0.339-0.512,0.673-1.001,1-1.46c3.479,0.946,6.421,2.62,9.923,5.445
	C-293.89,428.244-288.981,430.033-281.993,430.4z M-283.539,434.442c6.807,0.359,12.735,2.523,18.287,7.004
	c5.858,4.726,10.355,6.185,17.071,6.538c3.823,0.201,7.061,0.883,10.066,2.137c-0.391,0.429-0.764,0.847-1.125,1.259
	c-2.145-0.845-4.441-1.26-7.327-1.411c-8.466-0.446-14.609-2.799-21.209-8.123c-4.343-3.505-8.577-5.126-14.149-5.419
	c-8.547-0.45-15.034-2.934-21.695-8.309c-3.466-2.796-5.743-3.997-9.264-4.536c0.31-0.527,0.618-1.043,0.925-1.545
	c3.902,0.893,7.051,2.605,10.863,5.681C-295.436,432.286-290.528,434.076-283.539,434.442z M-285.086,438.485
	c6.807,0.358,12.736,2.522,18.288,7.004c5.857,4.725,10.355,6.186,17.07,6.537c3.213,0.169,6.012,0.678,8.608,1.58
	c-0.368,0.456-0.717,0.901-1.048,1.336c-1.758-0.529-3.668-0.812-5.946-0.931c-8.465-0.445-14.609-2.797-21.209-8.123
	c-4.343-3.505-8.576-5.126-14.149-5.419c-8.547-0.448-15.033-2.934-21.694-8.309c-3.685-2.972-6.027-4.141-9.946-4.629
	c0.294-0.54,0.59-1.076,0.886-1.605c4.242,0.844,7.54,2.572,11.584,5.835C-296.982,436.329-292.074,438.119-285.086,438.485z
	 M-286.659,442.597c6.807,0.358,12.735,2.523,18.288,7.004c5.857,4.725,10.355,6.185,17.07,6.538c2.731,0.143,5.163,0.532,7.425,1.2
	c-0.323,0.489-0.623,0.967-0.903,1.437c-1.472-0.353-3.07-0.557-4.908-0.653c-8.465-0.446-14.608-2.798-21.209-8.123
	c-4.342-3.506-8.576-5.127-14.149-5.419c-8.546-0.449-15.033-2.934-21.694-8.309c-3.861-3.115-6.248-4.25-10.521-4.695
	c0.284-0.549,0.572-1.1,0.863-1.65c4.535,0.798,7.95,2.531,12.182,5.946C-298.555,440.44-293.647,442.23-286.659,442.597z
	 M-288.205,446.639c6.807,0.358,12.735,2.523,18.288,7.004c5.857,4.726,10.355,6.185,17.07,6.538
	c2.468,0.129,4.693,0.459,6.768,1.015c-0.246,0.514-0.469,1.022-0.672,1.525c-1.355-0.293-2.82-0.469-4.482-0.556
	c-8.465-0.445-14.608-2.798-21.209-8.123c-4.343-3.504-8.576-5.126-14.149-5.419c-8.547-0.449-15.034-2.933-21.695-8.308
	c-4.002-3.23-6.421-4.332-11-4.742c0.276-0.555,0.558-1.118,0.846-1.687c4.786,0.757,8.293,2.491,12.679,6.029
	C-300.101,444.483-295.193,446.272-288.205,446.639z M-289.751,450.681c6.807,0.359,12.735,2.523,18.287,7.004
	c5.858,4.726,10.355,6.186,17.071,6.538c2.47,0.13,4.696,0.46,6.773,1.016c-0.152,0.526-0.289,1.053-0.412,1.583
	c-1.428-0.33-2.976-0.522-4.747-0.615c-8.466-0.444-14.609-2.797-21.209-8.122c-4.343-3.505-8.576-5.126-14.149-5.419
	c-8.547-0.449-15.034-2.934-21.695-8.309c-4.121-3.325-6.564-4.394-11.413-4.776c0.267-0.556,0.544-1.129,0.832-1.719
	c5.007,0.722,8.59,2.453,13.105,6.095C-301.648,448.526-296.74,450.315-289.751,450.681z M-291.016,454.89
	c6.807,0.358,12.736,2.522,18.288,7.004c5.857,4.725,10.355,6.184,17.071,6.537c2.678,0.141,5.068,0.517,7.293,1.161
	c0.009,0.584,0.063,1.158,0.147,1.721c-1.725-0.506-3.6-0.781-5.827-0.897c-8.465-0.446-14.608-2.799-21.208-8.123
	c-4.343-3.506-8.576-5.127-14.149-5.419c-8.547-0.449-15.034-2.934-21.695-8.309c-4.316-3.483-6.789-4.491-12.115-4.826
	c0.251-0.539,0.527-1.129,0.825-1.762c5.384,0.659,9.09,2.377,13.814,6.189C-302.912,452.733-298.004,454.522-291.016,454.89z
	 M-292.562,458.932c6.807,0.358,12.735,2.522,18.288,7.004c5.857,4.725,10.355,6.185,17.07,6.538
	c3.668,0.192,6.797,0.828,9.699,1.986c0.185,0.681,0.369,1.338,0.515,1.969c-2.522-1.228-5.136-1.79-8.6-1.971
	c-8.465-0.446-14.608-2.798-21.209-8.123c-4.343-3.505-8.576-5.126-14.149-5.419c-8.546-0.449-15.033-2.934-21.694-8.309
	c-4.267-3.443-6.734-4.467-11.937-4.814c-0.148-0.373-0.222-0.579-0.222-0.579s0.199-0.445,0.557-1.231
	c5.553,0.63,9.311,2.34,14.126,6.225C-304.458,456.775-299.55,458.565-292.562,458.932z M-294.108,462.974
	c6.807,0.358,12.735,2.523,18.288,7.004c5.857,4.725,10.354,6.186,17.07,6.538c4.642,0.243,8.421,1.196,11.969,3.022
	c-0.108,0.533-0.322,1.035-0.679,1.501c-2.869-1.628-5.718-2.331-9.676-2.539c-8.466-0.444-14.609-2.797-21.209-8.123
	c-4.343-3.504-8.576-5.126-14.149-5.419c-8.547-0.448-15.034-2.934-21.695-8.309c-3.157-2.546-5.329-3.769-8.352-4.374
	c-0.349-0.69-0.656-1.328-0.922-1.901c4.346,0.827,7.687,2.558,11.799,5.876C-306.005,460.819-301.097,462.608-294.108,462.974z
	 M-295.681,467.086c6.807,0.358,12.735,2.523,18.288,7.004c5.857,4.726,10.355,6.185,17.07,6.538
	c3.934,0.206,7.248,0.922,10.328,2.247c-0.674,0.317-1.431,0.593-2.256,0.832c-1.9-0.634-3.957-0.963-6.458-1.095
	c-8.465-0.445-14.608-2.798-21.209-8.122c-4.342-3.506-8.576-5.128-14.149-5.42c-8.547-0.449-15.034-2.933-21.695-8.308
	c-1.194-0.964-2.247-1.737-3.258-2.36c-0.588-0.906-1.127-1.789-1.621-2.635c2.462,1.002,4.775,2.474,7.404,4.595
	C-307.578,464.93-302.669,466.719-295.681,467.086z M-297.227,471.128c6.807,0.359,12.735,2.523,18.287,7.004
	c5.857,4.726,10.356,6.185,17.071,6.538c0.645,0.034,1.273,0.082,1.886,0.144c-3.661,0.151-7.815-0.067-12.157-0.621
	c-3.201-1.301-6.212-3.151-9.324-5.661c-4.343-3.505-8.577-5.126-14.149-5.419c-5.128-0.27-9.514-1.273-13.642-3.193
	c-1.83-1.618-3.484-3.335-4.97-5.072C-308.797,469.088-303.985,470.774-297.227,471.128z M-298.774,475.171
	c6.807,0.358,12.736,2.522,18.288,7.004c0.343,0.276,0.68,0.54,1.014,0.795c-1.427-0.293-2.857-0.617-4.278-0.974
	c-4.089-3.105-8.154-4.565-13.41-4.841c-0.302-0.016-0.601-0.035-0.898-0.056c-0.95-0.432-1.875-0.879-2.768-1.342
	c-0.591-0.307-1.169-0.628-1.737-0.961C-301.362,474.979-300.106,475.101-298.774,475.171z M-238.783,429.617
	c-8.465-0.444-14.608-2.797-21.208-8.122c-4.343-3.505-8.577-5.127-14.149-5.419c-7.822-0.41-13.918-2.529-20.001-7.004
	c0.713-0.223,1.445-0.44,2.194-0.648c5.106,3.791,9.771,5.331,16.192,5.667c6.807,0.359,12.736,2.523,18.288,7.004
	c5.857,4.726,10.355,6.187,17.07,6.538c5.543,0.291,9.855,1.592,14.011,4.184c-0.128,0.602-0.278,1.207-0.45,1.812
	C-230.563,430.928-233.791,429.879-238.783,429.617z M-237.236,425.575c-8.466-0.445-14.609-2.798-21.209-8.123
	c-4.343-3.504-8.576-5.126-14.149-5.419c-6.143-0.323-11.222-1.697-16.066-4.44c0.82-0.187,1.656-0.363,2.507-0.526
	c3.618,1.875,7.327,2.74,11.945,2.982c6.807,0.358,12.735,2.523,18.287,7.004c5.858,4.726,10.356,6.185,17.071,6.538
	c5.116,0.268,9.185,1.397,13.05,3.609c-0.025,0.632-0.074,1.275-0.147,1.924C-229.405,426.765-232.54,425.821-237.236,425.575z
	 M-235.69,421.533c-8.465-0.445-14.609-2.798-21.209-8.123c-4.342-3.506-8.576-5.127-14.149-5.419
	c-3.613-0.19-6.858-0.745-9.903-1.727c1.95-0.229,3.953-0.381,5.992-0.439c0.742,0.079,1.506,0.14,2.297,0.182
	c6.807,0.358,12.735,2.523,18.288,7.004c5.857,4.725,10.355,6.185,17.07,6.538c4.298,0.225,7.855,1.059,11.175,2.63
	c0.115,0.637,0.203,1.297,0.262,1.976C-228.786,422.467-231.664,421.744-235.69,421.533z M-234.117,417.421
	c-8.466-0.445-14.609-2.798-21.209-8.123c-1.214-0.98-2.421-1.808-3.65-2.506c1.351,0.155,2.702,0.326,4.041,0.512
	c0.718,0.495,1.429,1.026,2.134,1.595c5.857,4.725,10.355,6.186,17.07,6.538c2.776,0.145,5.243,0.545,7.537,1.233
	c0.402,0.61,0.759,1.291,1.066,2.033C-229.176,417.945-231.381,417.564-234.117,417.421z M-232.571,413.379
	c-6.776-0.357-12.064-1.937-17.289-5.284c1.824,0.318,3.6,0.666,5.302,1.044c2.332,1.061,4.682,1.667,7.347,1.997
	c2.075,0.699,3.888,1.461,5.348,2.287C-232.095,413.406-232.33,413.391-232.571,413.379z"/>
<path fill="#ED6047" d="M-265.959,385.069c-0.261,2.467-1.94,5.655-3.878,6.194c-1.937,0.54-2.176-1.134-1.789-1.892
	c0.388-0.758,1.472-3.111,0.957-5.492c-0.516-2.382-3.657-1.16-3.657-1.16s0.056,5.996,0.809,8.174
	c0.753,2.177-0.77,7.795-2.4,9.655c-1.63,1.861-4.889,4.636-12.508,3.839c-7.62-0.798-5.958-6.51-5.559-8.05
	c0.398-1.54-0.999-2.72-0.928-4.233c0.105-2.256,1.832-3.286,5.659-4.04c4.565-0.899,9.435,3.029,11.297,1.384
	c1.862-1.645,0.779-12.312-3.27-14.029c-4.049-1.717-9.148,4.84-10.72,5.731c-1.571,0.892-5.626,2.168-5.917-4.905
	c-0.291-7.074,6.858-12.706,9.592-12.074c2.734,0.633,3.066,3.245,3.066,3.245s5.445-2.887,10.818-0.208
	c1.914,0.955,1.168,3.967,1.175,4.766c0.006,0.8,3.352,0.277,4.679,2.241c1.327,1.964-0.825,4.442-0.693,5.5
	C-269.093,380.772-265.697,382.601-265.959,385.069z M-288.821,391.231c-3.856,0.116-2.245,2.442-1.939,3.098
	c0.306,0.655,0.714,1.639,1.797,1.63c1.083-0.01,6.839-0.382,7.16-1.367C-281.481,393.607-284.965,391.116-288.821,391.231z"/>
<path fill="#00A6CE" d="M-286.448,373.688c-5.108,1.508-9.34,4.564-8.274,12.112c0.893,6.333,0.845,11.472,6.489,12.784
	c5.654,1.315,5.936-0.691,6.783,1.333c0.293,0.7-0.221,2.299-0.882,4.294c-1.25,3.773-3.955,11.97-1.343,14.81
	c8.634,9.388,25.538-3.341,22.225-11.907c-1.598-4.13-4.623-12.811-6.107-17.556c-1.512-4.835-3.195-9.153-4.264-11.234
	C-275.005,372.127-281.339,372.181-286.448,373.688z"/>
<path fill="#484A69" d="M-271.821,378.324c1.058,2.059,2.717,6.309,4.217,11.083c-0.64,0.922-1.412,1.628-2.233,1.856
	c-1.937,0.54-2.176-1.134-1.789-1.892c0.388-0.758,1.472-3.111,0.957-5.492c-0.516-2.382-3.657-1.16-3.657-1.16
	s0.056,5.996,0.809,8.174c0.753,2.177-0.77,7.795-2.4,9.655c-1.104,1.261-2.959,2.94-6.409,3.645
	c0.658-1.986,1.168-3.578,0.876-4.276c-0.847-2.024-1.129-0.018-6.783-1.333c-4.292-0.998-5.292-4.21-5.918-8.476
	c0.853-0.962,2.442-1.56,4.898-2.044c4.565-0.899,9.435,3.029,11.297,1.384c1.862-1.645,0.779-12.312-3.27-14.029
	c-4.049-1.717-9.148,4.84-10.72,5.731c-0.657,0.373-1.749,0.811-2.819,0.679c0.688-4.723,4.219-6.931,8.317-8.141
	C-281.339,372.181-275.005,372.127-271.821,378.324z M-288.821,391.231c-3.856,0.116-2.245,2.442-1.939,3.098
	c0.306,0.655,0.714,1.639,1.797,1.63c1.083-0.01,6.839-0.382,7.16-1.367C-281.481,393.607-284.965,391.116-288.821,391.231z"/>
<path fill="#0194B8" d="M-296.451,406.939c3.418,0.536,3.423,2.522,2.1,3.152c-1.322,0.63-1.78-0.162-3.5-0.526
	c-1.719-0.364-2.54,1.671-5.075,2.277c-2.534,0.605-7-1.226-7-1.226l10.5-7.355C-299.426,403.261-299.869,406.402-296.451,406.939z"
	/>
<path fill="#00A6CE" d="M-346.326,441.961c6.443,4.631,16.543,0.929,21.875-7.005c5.332-7.933,10.844-19.904,13.825-21.363
	c2.981-1.46,5.914-0.938,7.35-2.802c1.437-1.864,2.275-2.276,2.275-2.276s2.191,1.74,3.325,1.4c1.135-0.339,2.864-3.658,2.8-5.253
	c-0.063-1.595-1.925-3.852-1.925-3.852s2.777-0.129,4.55,0.175c1.774,0.304,3.1,2.141,3.325,0.525
	c0.226-1.616-2.048-2.915-4.2-3.502c-2.151-0.587-5.237-1.736-7.525-1.226c-2.287,0.51-11.158,6.384-13.475,8.405
	c-2.316,2.022-15.076,10.868-21.525,15.235C-348.922,429.408-352.769,437.329-346.326,441.961z"/>
<path fill="#504869" d="M-329.001,443.011c0,0-3.383-8.957-4.2-11.032c-0.817-2.074-1.195-5.108,1.75-5.428
	c2.946-0.32,28.75-1.488,31.85-1.576c3.101-0.088,5.218-0.902,5.95,2.977c0.733,3.879,7.526,34.847,7.526,34.847l-26.776-3.852
	L-329.001,443.011z"/>
<path fill="#423C55" d="M-330.926,429.003c-0.741,0.892,32.766-1.016,33.25,0c0.485,1.015,7.301,25.553,8.05,26.266
	c0.75,0.713-5.722-27.776-6.65-28.193C-297.779,426.4-330.184,428.111-330.926,429.003z"/>
<path fill="#17B950" d="M-313.121,438.371c-3.48-0.467-4.976,6.03-1.727,9.014c3.249,2.983,5.19,1.565,5.877-0.131
	S-309.642,438.837-313.121,438.371z"/>
<path fill="#00A6CE" d="M-243.609,448.336c7.291-11.878,15.603-13.526,22.627-1.615c0.649,12.819-0.349,26.15-4.593,28.861
	c-7.527,4.807-26.476-3.633-37.625-9.281c-11.149-5.648-16.926-6.386-19.075-6.304c-2.15,0.082-5.213-2.113-5.426-3.502
	c-0.212-1.389-1.091-5.413-1.575-7.004c-0.484-1.592-2.811-2.525-4.725-2.102c-1.914,0.423-4.448,1.271-4.9,0.525
	c-0.451-0.745,1.05-2.101,1.05-2.101s-3.854,1.933-4.725,1.226c-0.871-0.707,2.434-3.674,3.5-4.553
	c1.067-0.879,5.425-2.802,5.425-2.802s-9.312,1.994-9.275,0.526c0.038-1.468,10.675-4.728,10.675-4.728l-0.35-2.452
	c0,0,5.352,3.113,6.476,4.378c1.123,1.265,0.477,3.382,1.4,4.728c0.922,1.346,1.639,3.683,2.45,6.479
	c0.857,2.956,6.02,2.545,14.525,2.627c8.504,0.081,23.625,0.175,23.625,0.175S-243.955,450.255-243.609,448.336z"/>
<path fill="#EF9E8E" d="M-232.925,444.062c-4.325,0.669-8.444,2.888-10.684,4.274c0.859-4.76,2.807-14.183,5.959-22.135
	c4.391-11.078,7.017-17.374,12.95-3.152c1.731,4.149,3.217,13.757,3.718,23.672C-224.608,445.139-229.406,443.518-232.925,444.062z"
	/>
<path fill="#1B1C38" d="M-343.701,493.093h53.375c0,0-48.839-43.596-56.35-37.824C-354.187,461.041-343.701,493.093-343.701,493.093
	z"/>
<path fill="#283247" d="M-271.075,493.093c-10.548,0-15.098,0-28.001,0c-12.902,0-18.84-4.324-38.5-24.165
	c-17.724-17.887-30.978-1.014-34.65,2.977c-7.982,8.674-10.229,19.401-16.275,21.713c-5.261,2.012-9.705,2.386-13.3,6.655
	c-1.581,1.876,1.712,11.859-9.625,11.032c-3.783-0.276-6.937-2.025-9.269-4.445l-5.606,5.495c0,0-5.818-1.599-10.675-0.175
	c-4.858,1.424-12.123-0.204-14.701-1.751c-2.577-1.547-1.585-2.866,4.725-3.852c6.311-0.987,19.251-0.701,19.251-0.701l3.976-3.411
	c-2.176-4.609-2.02-9.827,1.274-12.524c5.579-4.567,16.1-10.029,27.825-27.667c11.725-17.639,21.148-37.035,40.775-32.921
	c34.352,7.199,99.401,49.381,99.401,49.381S-256.533,493.093-271.075,493.093z"/>
<path fill="#1B1C38" d="M-343.351,457.02c4.043,8.078,7.905,13.465,10.22,16.357c-0.424,15.094-19.267,15.497-36.164-4.65
	c-1.274,1.295-2.262,2.45-2.931,3.178c-0.578,0.628-1.126,1.268-1.648,1.914c0.624-6.6,2.178-12.669,4.973-17.499
	C-364.96,449.51-349.073,445.587-343.351,457.02z"/>
<path fill="#283247" d="M-342.476,520.761c-3.137,3.507-4.758,5.84,0,15.935c3.863,8.196-1.676,12.927-9.318,13.547l0.568,10.793
	c0,0-3.121,0.683-7.175,8.055c-2.944,5.354-12.189,10.577-15.4,8.405c-1.784-1.206,4.119-3.997,7-7.354
	c2.926-3.411,9.625-12.433,9.625-12.433l0.406-7.623c-0.193-0.026-0.387-0.051-0.581-0.082c-10.13-1.625-10.381-5.644-8.4-14.009
	c1.981-8.364,5.206-24.815-0.7-45.353c-5.906-20.539-3.567-35.506,8.225-36.949c20.761-2.54,16.347,23.465,15.575,32.045
	C-343.807,498.581-335.532,512.997-342.476,520.761z"/>
<path fill="#76DCF5" d="M-311.731,322.34c6.403,0.288,5.668,1.624,5.702,6.294c0.035,4.669,0.417,25.164-2.401,25.626
	c-2.818,0.462-6.152,0.449-6.152,0.449s0.094,3.034,1.2,6.744c0.788,2.643,4.952,8.542,4.952,8.542s-7.15-4.813-8.854-8.092
	c-2.249-4.331-3.001-7.044-3.001-7.044s-15.641,1.731-15.607-2.248s-1.968-28.204,1.951-29.822
	C-330.022,321.171-318.135,322.051-311.731,322.34z"/>
<path fill="#FFDF6E" d="M-352.955,326.021c-0.041,5.517-0.493,24.146,2.839,24.692c3.331,0.545,5.528,0.531,5.528,0.531
	c0.153-0.294,1.381,4.46-0.608,8.86c-1.215,2.689-4.952,7.793-4.952,7.793s7.31-4.421,9.304-7.793
	c2.935-4.963,4.062-8.683,4.062-8.683s0.321,0.028,0.87,0.07c12.22-8.212,17.757-14.901,21.443-29.287
	c-0.439-1.606-1.064-2.726-1.94-3.087c-4.633-1.912-22.234-0.872-29.804-0.531C-353.783,318.926-352.914,320.505-352.955,326.021z"
	/>
<path fill="#17B950" d="M-333.941,322.789c-3.646,1.506-2.168,22.571-1.971,28.702c4.143,0.317,21.845,1.425,21.809-2.726
	c-0.033-3.811,1.516-19.675-0.366-26.561C-321.083,321.865-330.53,321.38-333.941,322.789z"/>
<path fill="#FFFFFF" d="M-330.216,334.178l0.15-1.648l11.405-0.45l-0.3,1.499L-330.216,334.178z M-318.811,337.176l-11.405,0.299
	v-1.498l11.705-0.6L-318.811,337.176z M-324.213,340.473l-5.853,0.299v-1.498l6.003-0.45L-324.213,340.473z"/>
</svg>
