<?xml version="1.0" encoding="utf-8"?>
<!-- Generator: Adobe Illustrator 19.1.0, SVG Export Plug-In . SVG Version: 6.00 Build 0)  -->
<svg version="1.1" id="Layer_1" xmlns:ev="http://www.w3.org/2001/xml-events"
	 xmlns="http://www.w3.org/2000/svg" xmlns:xlink="http://www.w3.org/1999/xlink" x="0px" y="0px" viewBox="-456 299 250 310"
	 enable-background="new -456 299 250 310" xml:space="preserve">
<path fill="#E0E0AE" d="M-358.019,422.249c-0.176-0.716-2.919,36.536,2.955,68.486c5.848,31.814,24.133,70.905,25.714,72.918
	c1.581,2.014,8.138,2.651,8.438,3.616c0.299,0.966-0.577,1.719-3.617,2.411c-3.039,0.692-18.869,5.547-20.491,6.83
	c-1.622,1.282,5.986,2.262,9.643,1.807c3.658-0.454,9.271-4.169,12.857-4.62c3.587-0.451,8.873-0.458,8.438-1.808
	c-0.435-1.349-3.091-2.52-2.21-3.414c0.881-0.895,4.57-2.317,7.634-4.018c3.065-1.701,1.907-3.477-1.004-5.223
	c-2.912-1.746-8.098-5.223-6.831-9.441c1.268-4.218,3.849-5.603,2.411-9.441c-1.438-3.839-5.055-5.875-5.022-9.24
	c0.032-3.366-1.05-6.276-3.817-9.442c-2.768-3.165-5.762-5.999-7.433-16.672c-1.672-10.674-6.808-53.551-4.018-51.827
	c2.79,1.724,10.073,27.797,16.674,44.193s30.794,68.747,33.147,74.927c2.354,6.181,2.858,7.042,6.228,6.83
	c3.37-0.212,4.118-0.78,5.223,1.205c1.106,1.986,2.102,3.761,1.206,6.026c-0.897,2.266-6.02,14.261-6.63,17.276
	c-0.61,3.015,1.558,3.485,6.228-0.603c4.67-4.088,3.395-7.655,4.219-11.048c0.823-3.393,1.544-5.336,2.611-7.432
	c1.068-2.097-4.412-3.952-1.808-6.83c2.604-2.879,9.291-5.8,7.835-9.441c-1.456-3.642-6.272-4.953-6.027-8.035
	c0.245-3.083,2.677-8.642,0.804-13.459c-1.873-4.817-9.012-10.705-10.648-15.668c-1.635-4.964,0.59-6.906-0.602-11.049
	c-1.192-4.142-6.652-16.041-10.848-30.332c-4.341-14.779-20.09-73.722-20.09-73.722L-358.019,422.249z"/>
<path fill="#D0D3A7" d="M-345.02,450.761c3.033,0.556,9.359,2.095,10.476,2.368c-1.711,0.146,0.332,21.273,2.233,37.117
	c-3.614-3.422-9.393-10.447-13.512-23.013C-352.244,447.645-348.353,450.15-345.02,450.761z"/>
<path fill="#EF9E8E" d="M-334.171,369.808c-0.224-0.014-0.434-0.051-0.648-0.08c-0.481,0.945-1.057,1.91-1.763,2.892
	c-8.821,12.27-30.159,39.568-33.549,39.773c-3.39,0.206-11.405-13.979-3.616-23.904c7.788-9.924,22.499-29.286,28.326-32.944
	c2.689-1.688,5.535-1.72,7.819-0.571c0.616-1.399,1.368-2.901,2.276-4.514c2.458-0.868,5.653-1.701,8.387-2.347
	c0.086-0.744,0.015-1.416,0.114-2.067c0,0,0.721-6.261,8.122-7.977c7.402-1.716,8.63,4.51,8.63,4.51l0.411,3.525
	c1.362-0.006,2.988,0.083,4.283,0.124C-309.678,367.833-328.289,370.154-334.171,369.808z"/>
<path fill="#504869" d="M-380.578,374.629c-1.238-2.611,2.243-4.457,2.009-7.433c-0.234-2.975,1.641-7.623,3.013-9.039
	c1.373-1.417,2.021-3.025-0.2-2.411c-2.222,0.614-4.515,3.833-5.224,5.022c-0.709,1.189-3.289,1.127-5.022,0
	c-1.733-1.127-4.584-4.866-6.429-6.629c-1.844-1.763-4.653-1.264-4.821-0.602c-0.168,0.661,2.466,2.095,3.616,3.415
	c1.15,1.319,1.005,2.611,1.005,2.611s-4.408-1.105-6.63-2.009c-2.222-0.904-5.392-0.655-5.223,0.603
	c0.169,1.258,3.017,1.461,4.821,2.41c1.804,0.95,2.009,1.206,2.009,1.206s-2.731-0.559-3.013,0.401
	c-0.282,0.961,5.719,3.521,7.031,5.826c1.312,2.305,4.934,14.993,6.027,19.083c1.093,4.09,1.462,14.425,4.219,19.284
	c2.756,4.859,6.448,10.11,9.843,10.044c1.253-0.024,4.094-3.975,7.835-7.432C-363.754,407.169-373.971,388.56-380.578,374.629z"/>
<path fill="#1B1C38" d="M-284.551,361.17c-3.084,8.097-18.369,47.665-18.884,51.424c-0.514,3.76,3.851,5.176,0.603,8.236
	c-3.248,3.06-17.364,10.111-33.147,10.446c-15.784,0.335-22.119-0.163-24.108-3.013c-1.091-1.564,1.394-2.13,0-3.817
	c-1.393-1.687-2.143-2.087-2.21-5.022c-0.066-2.935,0.223-17.595,3.416-32.542c3.192-14.946,10.249-28.888,13.861-31.738
	c1.854-1.463,5.422-3.175,9.694-4.684c0.08,1.307,0.278,3.109,0.753,4.885c1.002,3.743,3.013,7.432,3.013,7.432
	s5.382-5.75,12.255-9.843c5.424-3.231,11.053-5.588,13.926-6.706c6.97,0.225,12.817,1.073,16.007,1.684
	C-283.501,349.037-281.467,353.073-284.551,361.17z"/>
<path fill="#504869" d="M-311.671,320.794c0,0,2.905-1.253,3.013,1.607c0.209,5.535-2.812,5.825-2.812,5.825l1.397,14.353
	l-13.853,6.94l-2.899-3.473c0.052-3.707,0.759-9.579,0.288-9.986c-0.897-0.771-3.928,0.228-5.731-1.403
	c-0.82-0.742-1.96-2.533-2.441-5.515c-0.862-0.36-2.184-0.993-2.275-1.518c-0.086-0.5,1.16-1.749,2.077-2.59
	c0.025-0.521,0.068-1.063,0.133-1.629c0.363-3.173,1.193-5.832,2.536-7.892c2.32-1.822,5.816-3.946,11.125-3.357
	C-313.619,312.988-311.671,320.794-311.671,320.794z"/>
<path fill="#EF9E8E" d="M-284.149,390.699c0,0-5.834-10.217-10.647-22.699c-4.814-12.482-0.307-21.296,8.036-19.284
	c6.478,1.562,34.765,45.4,27.321,58.254C-266.882,419.824-284.149,390.699-284.149,390.699z"/>
<path fill="#283247" d="M-312.676,323.003c-0.782,3.702-1.89,2.092-2.611-0.201c-0.453-1.436-2.599-2.529-3.014-3.214
	c-1.245-2.053-0.249-2.688-1.205-4.218c-0.956-1.53-5.489,0.461-8.639,1.205c-2.496,0.59-3.722,0.026-4.093-1.062
	c1.708-2.618,4.245-4.267,7.709-4.763c6.182-0.886,10.361,0.021,12.054,5.424c0.746,2.379,0.814,4.044,0.804,4.62
	C-312.361,321.35-312.453,321.952-312.676,323.003z"/>
<path fill="#423C55" d="M-321.113,373.624c0.465,1.678,8.248,27.988,8.638,29.529c0.391,1.541,0.444,2.394-0.603,2.812
	c-1.046,0.419-23.773,3.129-24.91,3.214c-1.138,0.086-1.744-0.328-2.411-1.807c-0.667-1.48-10.252-25.855-10.647-27.521
	c-0.396-1.665-1.019-2.473,0.401-3.013c1.421-0.539,24.172-3.944,26.116-4.218C-322.584,372.346-321.579,371.947-321.113,373.624z"
	/>
<path fill="#2DBE60" d="M-334.26,386.737c-2.61,0.433-2.724,2.438-2.368,4.278c0.429,2.222,3.703,5.253,6.525,3.623
	C-327.089,392.898-330.83,386.168-334.26,386.737z"/>
<path fill="#504869" d="M-350.042,377.642c-0.711,0.681,25.709-3.518,26.518-3.013c0.809,0.504,3.17,5.936,3.616,6.227
	c0.446,0.291-1.957-7.041-2.812-7.433C-323.576,373.031-349.331,376.96-350.042,377.642z"/>
<path fill="#504869" d="M-259.439,406.97c-7.772,12.658-45.416-0.053-49.621-2.612c-4.204-2.558-5.745-4.303-8.437-5.423
	c-3.052-1.27-8.554-4.288-9.04-5.826c-0.486-1.538,1.205-1.004,1.205-1.004s-3.373-0.516-2.813-1.808
	c0.56-1.292,4.118-0.963,5.625-1.004c1.508-0.042,3.984,1.009,4.42,0.401c0.436-0.607-2.319-3.516-3.616-3.816
	c-1.297-0.3-4.638-0.51-4.821-1.406c-0.184-0.897,1.733-1.482,4.218-1.206c2.486,0.277,4.42,1.406,4.42,1.406l-0.603-1.807
	c0,0,4.014,0.801,5.424,1.807c1.411,1.007,1.78,2.689,2.813,4.621c1.033,1.931,0.924,3.803,4.018,4.017
	c3.093,0.215,11.142,0.041,14.263-0.803c3.122-0.844,13.054-3.54,18.884-4.42C-265.029,386.87-254.313,398.621-259.439,406.97z"/>
<path fill="#219549" d="M-313.594,371.737c-0.867,0.798-4.772-0.118-5.187-0.615c-0.412-0.494,0.061-1.825,0.605-2.62
	c0.548-0.801,1.962-0.146,1.962-0.146l-0.432,0.957c0,0-0.796-0.23-1.059,0.305c-0.407,0.829,1.055,0.613,1.819,0.353
	c0.646-0.22,0.641-0.649,0.837-1.435c0.197-0.787-1.135-0.697-2.039-0.832c-0.892-0.132-0.728-0.419-0.554-1.236
	c0.174-0.818-0.214-0.56-0.274-0.251c-0.06,0.309-0.937,2.769-1.524,2.58c-0.816-0.262-1.908-0.971-2.025-1.876
	c-0.086-0.671,0.221-2.925,0.423-3.979c0.571,0.014,1.175,0.025,1.617,0.005c0.728-0.034,1.099-0.293,1.295-1.189
	c0.12-0.548,0.243-1.171,0.38-1.763c0.503-0.055,1.194-0.127,1.884-0.187c1.351-0.117,0.931,1.215,0.931,1.215
	s0.675,0.013,3.014-0.14c1.564-0.102,1.93,0.363,1.981,1.389C-309.821,364.64-312.716,370.93-313.594,371.737z M-313.023,364.631
	c-0.624,0.035-1.228,1.461-1.228,1.461s0.525-0.173,0.946-0.22c0.424-0.047,0.795,0.275,0.795,0.275
	S-311.932,364.568-313.023,364.631z M-318.331,360.115l-0.449,2.24l-2.153,0.081L-318.331,360.115z"/>
<path fill="#2FD469" d="M-292.386,317.981l16.273-0.602l-0.804,12.253l-14.263,0.804L-292.386,317.981z"/>
<path fill="#2DBE60" d="M-344.819,301.911v12.053l-13.058,1.406l-0.201-12.053L-344.819,301.911z"/>
</svg>
