<?xml version="1.0" encoding="utf-8"?>
<!-- Generator: Adobe Illustrator 19.1.0, SVG Export Plug-In . SVG Version: 6.00 Build 0)  -->
<svg version="1.1" id="Layer_1" xmlns:ev="http://www.w3.org/2001/xml-events"
	 xmlns="http://www.w3.org/2000/svg" xmlns:xlink="http://www.w3.org/1999/xlink" x="0px" y="0px" viewBox="-456 299 250 310"
	 enable-background="new -456 299 250 310" xml:space="preserve">
<path fill="#E4EAF1" d="M-334.41,340.118l0.428,31.041l42.096-0.313l-0.223-32.154L-334.41,340.118z"/>
<path fill="#FFFFFF" d="M-331.414,342.693l-0.224,25.255l36.861,0.022l-0.046-26.101L-331.414,342.693z"/>
<path fill="#72848A" d="M-318.367,353.081c-0.348,0.575-3.1,0.328-3.503,0.041c-0.403-0.287-0.423-1.194-0.259-1.752
	c0.165-0.558,1.262-0.233,1.262-0.233l-0.043,0.645c0,0-0.582-0.089-0.622,0.276c-0.062,0.57,0.848,0.313,1.28,0.088
	c0.361-0.189,0.251-0.461,0.184-0.975c-0.068-0.513-0.908-0.368-1.536-0.393c-0.629-0.026-0.591-0.223-0.681-0.764
	c-0.09-0.542-0.285-0.351-0.247-0.147c0.038,0.205,0.07,1.868-0.377,1.789c-0.629-0.112-1.576-0.501-1.894-1.096
	c-0.237-0.442-0.608-1.967-0.74-2.681c0.41-0.018,0.838-0.039,1.142-0.073c0.495-0.056,0.684-0.242,0.59-0.837
	c-0.058-0.363-0.132-0.775-0.189-1.166c0.331-0.051,0.78-0.119,1.228-0.178c0.864-0.115,0.919,0.75,0.919,0.75
	s0.444-0.015,1.901-0.19c0.948-0.113,1.283,0.162,1.559,0.794C-317.76,348.432-318.02,352.507-318.367,353.081z M-319.737,348.582
	c-0.386,0.054-0.422,0.988-0.422,0.988s0.292-0.139,0.547-0.192c0.255-0.053,0.565,0.128,0.565,0.128
	S-319.069,348.489-319.737,348.582z M-324.369,345.9l0.263,1.488l-1.491,0.148L-324.369,345.9z"/>
<path fill="#D7E0EB" d="M-301.263,356.556l-24.112,0.446v-1.34l24.335-0.446L-301.263,356.556z M-306.175,359.682h-15.181v-1.117
	l15.181-0.446V359.682z"/>
<path fill="#2DBE60" d="M-301.263,366.157c-2.207,0.175-3.759-1.728-2.456-3.573c1.303-1.844,3.066-2.151,4.465,0
	C-298.248,364.13-298.989,365.976-301.263,366.157z M-316.668,347.969l11.61-0.345v3.796h-11.163L-316.668,347.969z"/>
<path fill="#EAEFF5" d="M-376.054,500.13h57.377l-0.67,12.057l-54.698,3.573L-376.054,500.13z"/>
<path fill="#D7E0EB" d="M-322.15,365.25c-0.5,0-1.143-0.524-1.305-0.924c-0.123-0.302-0.026-0.593,0.248-0.74
	c0.168-0.091,0.241-0.159,0.271-0.196c-0.103-0.079-0.43-0.171-0.667-0.086c-0.061,0.066-0.099,0.452-0.12,0.66
	c-0.045,0.457-0.092,0.93-0.462,1.085c-0.32,0.135-0.636-0.074-0.846-0.243c-0.546-0.438-0.831-0.739-0.778-1.074
	c0.049-0.303,0.332-0.409,0.559-0.495c0.369-0.139,0.576-0.238,0.539-0.662c-0.012-0.139-0.044-0.178-0.045-0.178
	c-0.304-0.082-1.667,1.087-2.464,2.129c-0.112,0.147-0.321,0.174-0.467,0.062c-0.145-0.112-0.173-0.321-0.061-0.467
	c0.02-0.027,2.122-2.669,3.19-2.357c0.17,0.05,0.463,0.214,0.51,0.753c0.009,0.107,0.008,0.206-0.001,0.297
	c0.061-0.059,0.134-0.106,0.223-0.138c0.511-0.183,1.314-0.004,1.522,0.465c0.074,0.167,0.166,0.59-0.509,0.988
	c0.09,0.142,0.355,0.349,0.537,0.425c-0.118-0.863,0.545-2.056,0.863-2.385c0.049-0.051,0.199-0.206,0.407-0.175
	c0.176,0.025,0.301,0.185,0.283,0.363l-0.073,0.733c0.148-0.17,0.311-0.314,0.483-0.399c0.317-0.156,0.514-0.021,0.584,0.045
	s0.221,0.208,0.123,0.712c0.303-0.067,0.682-0.062,1.121,0.124c0.813,0.344,1.327,0.21,1.331,0.209
	c0.177-0.048,0.36,0.054,0.41,0.229c0.05,0.175-0.048,0.358-0.222,0.411c-0.073,0.022-0.745,0.202-1.778-0.235
	c-0.732-0.31-1.178,0.142-1.183,0.147c-0.11,0.115-0.288,0.135-0.422,0.047s-0.186-0.259-0.124-0.407
	c0.054-0.131,0.104-0.272,0.144-0.401c-0.273,0.331-0.528,0.833-0.639,1.102c-0.063,0.153-0.23,0.235-0.388,0.195
	c-0.121-0.03-0.212-0.125-0.241-0.24c0.013,0.353-0.181,0.54-0.384,0.598C-322.035,365.243-322.092,365.25-322.15,365.25z
	 M-321.534,363.79c-0.075,0.249-0.114,0.496-0.079,0.698c0.002,0.012,0.004,0.024,0.006,0.036c0-0.004,0-0.007,0.001-0.011
	L-321.534,363.79z M-325.068,363.881c0.074,0.08,0.209,0.208,0.453,0.405c0.07,0.056,0.122,0.09,0.158,0.11
	c0.035-0.122,0.057-0.35,0.072-0.498c0.015-0.147,0.03-0.3,0.056-0.447c-0.216,0.232-0.504,0.341-0.687,0.41
	C-325.032,363.867-325.05,363.874-325.068,363.881z"/>
<path fill="#2FD469" d="M-304.389,389.379l-10.269-0.223l0.446-8.039l10.493-0.446L-304.389,389.379z M-349.933,325.295l0.446-9.378
	l10.717-0.223l-0.67,10.048L-349.933,325.295z"/>
<path fill="#504869" d="M-348.594,396.747c4.123-0.089,8.937-2.419,10.27-5.582c1.333-3.163-0.528-6.481,1.563-9.378
	c2.091-2.897,6.398-6.098,5.581-11.164c-0.816-5.067-4.356-9.009-4.911-10.941s2.077-4.966-2.233-8.485
	c-4.31-3.52-9.736-1.343-11.163-2.903c-1.426-1.56-6.52-11.183-22.102-7.145c-15.582,4.037-13.189,14.134-14.512,15.407
	c-1.323,1.272-9.634-0.052-12.279,5.135c-2.645,5.188,2.283,10.274,1.563,11.388c-0.72,1.114-8.846,5.283-5.582,15.63
	c3.265,10.347,11.587,7.317,12.503,8.932c0.915,1.614-3.437,8.727,5.804,13.174c9.242,4.446,22.996-5.333,26.568-10.048
	C-353.952,396.051-350.953,396.798-348.594,396.747z"/>
<path fill="#F7B543" d="M-308.311,430.747c-1.928,6.23-5.203,16.851-8.133,16.91c-6.875,0.138-19.682-36.629-22.55-43.988
	c-4.595-11.791,10.709-2.388,17.415,9.378c3.596,6.31,4.761,13.679,6.474,14.291c0.62,0.221,1.365-0.535,2.268-1.79
	C-309.725,422.868-307.634,426.451-308.311,430.747z"/>
<path fill="#C94E37" d="M-299.106,422.381c-5.094,3.347-6.706,2.374-7.738,4.064c-0.27,0.441-0.784,2.097-1.467,4.302
	c-2.91-0.251-4.134-2.872-4.526-5.199c1.592-2.213,3.676-5.98,6.439-8.705c4.156-4.099,3.732-6.39,8.037-6.252
	C-293.899,410.734-293.24,418.527-299.106,422.381z"/>
<path fill="#FAD347" d="M-319.124,467.53c-3.805,7.37-15.539,6.055-25.674-0.67c13.859-44.817,6.716-57.517-2.234-71.732
	c11.228,1.001,16.331,6.169,21.211,13.454C-319.192,418.479-311.476,452.717-319.124,467.53z"/>
<path fill="#F7B543" d="M-326.714,413.494c3.663,8.178,6.259,27.524,5.358,40.415c-0.9,12.868-11.715,11.622-18.531,10.048
	C-346.702,462.384-330.298,405.494-326.714,413.494z"/>
<path fill="#504869" d="M-357.524,394.738c-8.992,1.583-15.565,7.247-13.395,13.62c2.388,7.015,11.757,39.818,13.172,43.988
	c2.746,8.094,20.641,17.782,26.121,6.475c4.239-8.746,9.531-33.804,5.135-44.88C-332.815,398.005-346.936,392.873-357.524,394.738z"
	/>
<path fill="#C94E37" d="M-356.408,471.326c0,0,50.264-20.099,55.592-22.106c5.327-2.007,15.561-6.254,19.423,5.582
	s6.321,60.831,7.367,65.424c1.047,4.592,4.611,8.244,7.591,10.048c2.98,1.803,7.429,1.944,6.251,3.349
	c-1.177,1.405-8.254,0.327-9.823-1.563c-1.569-1.891-2.209-4.252-4.688-4.466c-2.48-0.214-2.804,0.029-3.126-1.116
	c-0.322-1.146,0.768-2.9,0.223-6.922c-0.545-4.023-12.561-22.359-13.172-24.562c-3.913-14.122-5.205,6.252-30.586,6.252
	C-328.808,501.246-356.408,471.326-356.408,471.326z"/>
<path fill="#ED6047" d="M-310.863,477.801c-0.367,6.484-1.912,17.592,2.679,35.279c2.518,9.703,3.64,32.587,3.572,37.289
	c-0.068,4.704-2.388,9.195-0.893,9.825s5.662,1.303,6.921,2.903c1.259,1.6,2.224,4.633,6.028,4.689s5.773-0.475,3.126-2.01
	c-2.648-1.534-11.468-8.502-11.833-12.504c-0.365-4.001,5.4-29.79,8.484-40.415c3.084-10.624,6.947-38.681-0.893-42.425
	C-301.512,466.689-301.491,475.223-310.863,477.801z"/>
<path fill="#504869" d="M-300.816,449.22c0,0-9.569,8.776-7.591,16.3c3.635,13.831-9.446,22.313-5.772,27.794
	c3.557,5.306,0.059,7.997-4.275,7.932c-4.331-0.065-25.548,0-38.623,0c-19.503,0-23.204-12.722-17.638-29.474
	c5.567-16.751,5.582-16.523,5.582-16.523l36.391,4.912L-300.816,449.22z"/>
<path fill="#423C55" d="M-319.57,495.887c1.655,2.842-2.492,5.359-5.358,5.359c-2.97,0-14.418,0-18.754,0
	c7.903,0,19.174-8.571,22.549-11.164C-316.398,486.444-320.956,493.507-319.57,495.887z M-332.296,460.384l-31.033,11.165
	l7.814-16.523c0,0,26.846-4.73,25.675-0.894S-332.296,460.384-332.296,460.384z"/>
<path fill="#504869" d="M-309.97,443.415c0.847-3.164,8.122-31.713,8.707-34.387c0.585-2.673,1.453-4.264,3.795-4.466
	c2.342-0.201,19.694-1.203,21.656-1.116c1.963,0.087,2.434,0.743,1.563,4.242c-0.871,3.5-7.755,29.585-8.26,31.707
	c-0.505,2.122-1.351,3.772-4.465,4.466c-3.115,0.694-16.222,2.946-18.754,3.349C-308.261,447.613-310.817,446.578-309.97,443.415z"
	/>
<path fill="#2DBE60" d="M-287.868,418.406c-2.342,0.147-5.076,8.02-4.688,10.272c0.388,2.251,2.841,0.134,3.795-1.787
	C-287.806,424.97-285.525,418.26-287.868,418.406z"/>
<path fill="#423C55" d="M-276.481,405.009c-0.713-0.61-21.058,0.184-22.103,1.116c-1.873,1.672-6.673,23.065-6.698,25.009
	c-0.024,1.943,5.582-21.766,7.814-23.446C-295.235,406.009-275.768,405.619-276.481,405.009z"/>
<path fill="#FAD347" d="M-361.319,404.339c3.827,5.539,9.523,13.082,12.279,25.678c2.888,13.199,3.137,51.126-17.861,49.57
	c-0.568-0.042-1.096-0.018-1.594,0.051c-3.807-0.522-6.932-1.307-8.899-2.284c-10.098-5.016-10.044-14.308-8.037-18.756
	c2.007-4.447,5.837-0.849,7.144-2.456c1.307-1.607-1.457-3.714-1.786-7.369c-0.329-3.654,4.532-5.68,5.135-9.154
	c0.603-3.474-3.94-16.566-4.688-26.348c-0.604-7.878,6.834-13.96,16.455-16.711C-365.414,398.179-363.946,400.538-361.319,404.339z"
	/>
<path fill="#F7B543" d="M-374.492,409.475c1.941-2.901,15.429,0.297,22.326,20.766c5.533,16.418,3.315,33.591-8.26,36.172
	c-8.738,1.949-11.889-2.967-8.484-10.494c1.862-4.116-10.9-4.3-4.019-13.174C-369.286,438.047-381.811,420.416-374.492,409.475z"/>
<path fill="#ED6047" d="M-348.594,394.515c3.71,1.372,14.562,7.533,9.154,10.047c-3.251,1.512-9.82,1.198-17.191-2.232
	c-5.469-2.546-6.603-3.65-6.38-6.337l0.129,0.308c0,0,2.109-6.749,1.563-11.388c-0.724-6.146-5.69-19.411,11.609-21.659
	c0.033-0.004,0.065-0.003,0.098-0.007c4.003,0.586,6.669,2.949,7.939,7.152c0.551,1.822,0.794,3.457,0.821,4.917
	c1.015,1.055,1.989,2.176,1.954,2.564c-0.046,0.503-1.437,1.05-2.468,1.388c-0.552,1.844-1.463,3.198-2.316,4.082
	c-1.882,1.952-5.266,0.693-6.251,2.68C-350.919,388.016-349.909,394.028-348.594,394.515z"/>
<path fill="#ED6047" d="M-305.55,436.567c1.214,0.024,4.729,0.571,4.421,1.603c-0.308,1.033-3.319,0.557-4.822,1.002
	c-1.504,0.445-1.836,1.713-0.804,1.403s2.933-0.708,3.014,0.401c0.081,1.108-2.941,1.795-3.215,2.805s-2.982,4.694-5.023,6.555
	c-0.956,0.872-10.45,3.284-20.581,5.486c-7.848-0.782-6.762-9.211-0.719-10.015c7.988,0.562,15.673,0.133,17.058-0.829
	c1.428-0.993,2.926-7,3.237-9.213c0.311-2.212,6.229-4.408,6.229-4.408l-0.558,3.006c0,0,0.437-0.619,2.366-1.002
	c1.929-0.383,4.898-0.613,5.024,0.601C-299.797,435.176-306.763,436.544-305.55,436.567z"/>
<path fill="#FAD347" d="M-332.56,455.822c-11.512,2.501-23.846,4.73-25.41,4.116c-2.59-1.016-8.454-10.954-14.959-25.455
	c-9.555-21.302-5.112-26.766-2.232-29.697c10.062-10.244,24.781,40.192,24.781,40.192c-0.006-0.022,9.654,0.251,16.351,0.773
	c0.251,0.02,0.501,0.038,0.75,0.056c-0.382,1.161-0.936,3.432-0.58,6.093C-333.667,453.331-333.083,454.765-332.56,455.822z"/>
<path fill="#283247" d="M-350.422,364.112c-1.605,2.19-0.463,6.227-3.303,10.585c-1.97,3.023-4.173,3.255-4.754,3.975
	c-0.638,0.792,0.679,2.113-0.161,4.232c-0.841,2.118-1.786,2.456-1.786,2.456s2.52,4.189,1.339,6.698
	c-1.063,2.261-2.571,3.525-3.946,4.234c0.018-0.404,0.072-0.843,0.151-1.331c0.752-4.633,0.546-8.044-0.67-12.727
	c-1.216-4.684-3.911-15.566,5.135-18.087c3.481-0.97,6.457-1.267,8.921-0.882C-349.841,363.473-350.155,363.748-350.422,364.112z"/>
</svg>
