<?xml version="1.0" encoding="UTF-8"?>
<svg width="32px" height="32px" viewBox="0 0 32 32" version="1.1" xmlns="http://www.w3.org/2000/svg" xmlns:xlink="http://www.w3.org/1999/xlink">
    <!-- Generator: Sketch 51.2 (57519) - http://www.bohemiancoding.com/sketch -->
    <title>icons/social/instagram/white</title>
    <desc>Created with Sketch.</desc>
    <defs></defs>
    <g id="icons/social/instagram/white" stroke="none" stroke-width="1" fill="none" fill-rule="evenodd">
        <g id="Icons/Social/Facebook"></g>
        <g id="38-instagram" transform="translate(9.000000, 9.000000)" fill="#000000">
            <path d="M11.9985,3.55271368e-15 L2.8743,3.55271368e-15 C1.2894,3.55271368e-15 1.0658141e-14,1.2891 1.0658141e-14,2.874 L1.0658141e-14,5.91 L1.0658141e-14,11.9985 C1.0658141e-14,13.5834 1.2894,14.8725 2.8743,14.8725 L11.9988,14.8725 C13.5837,14.8725 14.8728,13.5834 14.8728,11.9985 L14.8728,5.9097 L14.8728,2.8737 C14.8725,1.2888 13.5834,3.55271368e-15 11.9985,3.55271368e-15 L11.9985,3.55271368e-15 Z M12.8229,1.7139 L13.1517,1.7127 L13.1517,2.04 L13.1517,4.2336 L10.6392,4.2417 L10.6305,1.7211 L12.8229,1.7139 L12.8229,1.7139 Z M5.3136,5.9097 C5.79,5.2506 6.5628,4.8183 7.4364,4.8183 C8.31,4.8183 9.0828,5.2506 9.5586,5.9097 C9.8685,6.3399 10.0542,6.8661 10.0542,7.4361 C10.0542,8.8794 8.8788,10.0536 7.4361,10.0536 C5.9925,10.0536 4.8183,8.8794 4.8183,7.4361 C4.8186,6.8661 5.0037,6.3399 5.3136,5.9097 L5.3136,5.9097 Z M13.4235,11.9982 C13.4235,12.7845 12.7842,13.4232 11.9985,13.4232 L2.8743,13.4232 C2.0883,13.4232 1.449,12.7845 1.449,11.9982 L1.449,5.9097 L3.669,5.9097 C3.4773,6.3813 3.3696,6.8964 3.3696,7.4361 C3.3696,9.678 5.1936,11.5032 7.4364,11.5032 C9.6789,11.5032 11.5029,9.678 11.5029,7.4361 C11.5029,6.8964 11.3946,6.3813 11.2029,5.9097 L13.4235,5.9097 L13.4235,11.9982 L13.4235,11.9982 Z" id="Shape"></path>
        </g>
    </g>
</svg>