<?xml version="1.0" encoding="UTF-8"?>
<svg width="32px" height="32px" viewBox="0 0 32 32" version="1.1" xmlns="http://www.w3.org/2000/svg" xmlns:xlink="http://www.w3.org/1999/xlink">
    <!-- Generator: Sketch 51.2 (57519) - http://www.bohemiancoding.com/sketch -->
    <title>icons/social/linkedin/white</title>
    <desc>Created with Sketch.</desc>
    <defs></defs>
    <g id="icons/social/linkedin/white" stroke="none" stroke-width="1" fill="none" fill-rule="evenodd">
        <g id="Icons/Social/Facebook" fill="#000000">
            <g id="Group" transform="translate(9.000000, 8.000000)">
                <polygon id="Path" points="3.52102941 14.8398529 0.227647059 14.8398529 0.227647059 4.93147059 3.52102941 4.93147059"></polygon>
                <path d="M1.87455882,3.57794118 L1.8525,3.57794118 C0.747794118,3.57794118 0.0330882353,2.81691176 0.0330882353,1.86617647 C0.0330882353,0.894264706 0.769852941,0.154411765 1.89617647,0.154411765 C3.02294118,0.154411765 3.71602941,0.894264706 3.73808824,1.86617647 C3.73808824,2.81691176 3.0225,3.57794118 1.87455882,3.57794118 L1.87455882,3.57794118 Z" id="Path"></path>
                <path d="M15.3970588,14.8398529 L12.1036765,14.8398529 L12.1036765,9.53779412 C12.1036765,8.20632353 11.6272059,7.2975 10.4355882,7.2975 C9.52588235,7.2975 8.98411765,7.91029412 8.74544118,8.50235294 C8.65852941,8.71367647 8.63735294,9.00926471 8.63735294,9.30573529 L8.63735294,14.8394118 L5.34397059,14.8394118 C5.34397059,14.8394118 5.38720588,5.85970588 5.34397059,4.93102941 L8.63735294,4.93102941 L8.63735294,6.33352941 C9.075,5.65852941 9.85764706,4.69720588 11.6060294,4.69720588 C13.7726471,4.69720588 15.3975,6.11382353 15.3975,9.1575 L15.3975,14.8398529 L15.3970588,14.8398529 Z" id="Path"></path>
            </g>
        </g>
    </g>
</svg>