<?xml version="1.0" encoding="UTF-8"?>
<svg width="32px" height="32px" viewBox="0 0 32 32" version="1.1" xmlns="http://www.w3.org/2000/svg" xmlns:xlink="http://www.w3.org/1999/xlink">
    <!-- Generator: Sketch 51.2 (57519) - http://www.bohemiancoding.com/sketch -->
    <title>icons/social/medium/white</title>
    <desc>Created with Sketch.</desc>
    <defs></defs>
    <g id="icons/social/medium/white" stroke="none" stroke-width="1" fill="none" fill-rule="evenodd">
        <g id="Icons/Social/Facebook"></g>
        <path d="M24,22.3497213 C24,22.648212 23.8228542,22.8184491 23.5620955,22.8184491 C23.4450021,22.8184491 23.3109027,22.7849686 23.1697175,22.713756 L22.524021,22.3856819 L19.6392012,20.9249374 L24,13.7484057 L24,22.3497213 Z M14.7143701,18.4303699 L14.7143701,13.7726747 L17.9217724,20.05586 L15.036244,18.5951155 L14.7143701,18.4303699 Z M18.494662,10.6726227 L18.757015,10.2416269 C18.850548,10.0878643 19.0220251,10 19.1963366,10 C19.2370802,10 19.2788866,10.0056687 19.319453,10.0166517 C19.3499221,10.0235604 19.382694,10.0347206 19.4156432,10.0519037 L23.9397704,12.3423993 C23.9411876,12.3423993 23.9411876,12.3438164 23.9411876,12.3438164 L23.9454391,12.3452336 C23.9480963,12.3464736 23.9480963,12.3507251 23.9511078,12.3521423 C23.9739596,12.370034 23.9833483,12.4012117 23.9682909,12.4261892 L19.4613468,19.8427536 L19.0011219,20.5982805 L16.0160376,14.7519368 L18.494662,10.6726227 Z M13.9995867,22.3497213 C13.9995867,22.6673438 13.8293495,22.8575984 13.5886083,22.8575984 C13.5034012,22.8575984 13.4079196,22.8335065 13.3076551,22.7835514 L9.41522982,20.8120955 C9.18688885,20.6965964 9,20.3896027 9,20.1315013 L9,10.4685507 C9,10.2131064 9.13498512,10.0630639 9.32878265,10.0630639 C9.39733809,10.0630639 9.47404223,10.0809556 9.55358071,10.1211677 L9.68998299,10.1909632 L9.69210874,10.1909632 L13.9816949,12.3631253 C13.9886036,12.3673768 13.9940951,12.3742855 13.9995867,12.379777 L13.9995867,22.3497213 Z" id="Fill-1" fill="#000000"></path>
    </g>
</svg>