<?xml version="1.0" encoding="utf-8"?>
<!-- Generator: Adobe Illustrator 21.1.0, SVG Export Plug-In . SVG Version: 6.00 Build 0)  -->
<svg version="1.1" id="Layer_1" xmlns="http://www.w3.org/2000/svg" xmlns:xlink="http://www.w3.org/1999/xlink" x="0px" y="0px"
	 viewBox="0 0 217 284" style="enable-background:new 0 0 217 284;" xml:space="preserve">
<style type="text/css">
	.st0{fill:#D1D9E2;}
	.st1{fill:#DFE5ED;}
	.st2{fill:#FFFFFF;}
	.st3{fill:#F1F3F5;}
	.st4{fill:#C9CBCF;}
	.st5{fill:#2DBE60;}
	.st6{fill:#384C5E;}
	.st7{fill:#1B1C38;}
	.st8{fill:#283247;}
	.st9{fill:#00A6CE;}
	.st10{fill:#484A69;}
	.st11{fill:#ED6047;}
	.st12{fill:#FAD347;}
	.st13{fill:#4F7B8A;}
</style>
<title>premium-plan</title>
<path class="st0" d="M27.4,124.2c0,0-3.4-16.9-3.7-17.8s-1-3.1,0.9-3.6c1.9-0.4,25-5.3,26.3-5.6c1.3-0.3,3.7-1.6,4.7,3.2
	c1,4.8,4.2,19,4.3,21s-5.1,12.4-5.7,14c-0.7,1.6-1.5,2.4-4.2,2.8c-2.7,0.5-26.1,2.5-28.3,2.8c-4,0.6-4.4,0.1-4.6-0.9
	c-0.2-1-0.4-1.2,1.2-3.4C19.5,135,27.4,124.2,27.4,124.2z"/>
<path class="st1" d="M30.8,132.6l-3.3,4.4l11.7-1.4l1.9-3.8L30.8,132.6z"/>
<path class="st2" d="M32.3,122.9c-1.6-0.7-2.7-2.1-3-3.8c-2.3-12.9-2.9-12.4,11.7-15.2c12-2.3,13.2-0.2,13.2-0.2l3.5,15.5
	L32.3,122.9z"/>
<path class="st3" d="M29.7,108.4l2.6,14.5l-3.6,0.5l-2.8-14.3c0,0,0.7-1.5,1.6-1.7C28.5,107.2,29.7,108.4,29.7,108.4z"/>
<path class="st4" d="M35,117.9l-0.2-1l17.5-2.9l0.2,1L35,117.9z M34.2,114.5l17.6-2.6l0.2,1l-17.6,2.6L34.2,114.5z M33.6,112.4
	l17.5-2.9l0.3,1.2l-17.6,2.6L33.6,112.4z M33.1,110.2l17.4-3.1l0.2,1l-17.5,2.9L33.1,110.2z M42.7,118.8l-6.9,1l-0.2-0.7l6.9-1
	L42.7,118.8z"/>
<path class="st5" d="M25.9,109.1l-0.6-3.3l28.1-5.5l0.8,3.5L25.9,109.1z"/>
<path class="st6" d="M82.6,89.1C82,88,74.8,69.2,74.1,67.5c-0.7-1.7-0.5-2.7,1-2.7s9.9-1,11-1c1.1,0,2.6-0.3,3.5,2.5
	s5,18.7,5.5,20.2c0.5,1.5,0.8,3-0.7,3.2c-1.5,0.3-7.4,0.9-8.7,1C84.2,90.7,83.1,90.3,82.6,89.1z"/>
<path class="st5" d="M83.1,72.4c-1.8,0.7-1.6,3.2-0.5,4.2c1.1,1,3.2,1.2,3.7-1S84.9,71.7,83.1,72.4z"/>
<path class="st7" d="M118.9,71.9c-4,0.4-11.9,4.9-16.4,12.7c-2.8,4.7-5.3,9.6-7.5,14.7c0,0-4.4-3.4-7.7-4.2s-6.6,0.1-9.5,7
	c-2.8,6.9-4.5,16.1,0.2,20.4c4.7,4.3,10.8-0.1,13.4,1c2.7,1.1,2.4,5.7,6.2,5.5c3.8-0.2,6.8-4.7,10.2-13.7
	C111.3,106.3,122.9,71.5,118.9,71.9z"/>
<path class="st8" d="M130.1,121c-4.6,1.7-16.3,2-21.7,1.2c-4.4-0.6-8.1-3.3-11-5.5c-2.9-2.3,0.6-12.4,3.7-21.4s11.3-20.8,13.4-22.2
	s8.4-3.8,11.7-4.5c4.5-0.9,13.2-2.2,20.9,1.7c5.7,2.9-0.5,10.5-2.5,13.9C138.1,96.2,134.7,119.3,130.1,121z"/>
<path class="st9" d="M153,52.3c-4.9,6.2-9.9,4.7-9.7,5.5c0.5,2.3,4,2.4,4.2,3c0.3,0.8-3.2,3.7-9.2,2.7c-6-0.9-7.4-6.4-7-7.2
	c0.2-0.5,2.2-1.4,2.7-3.2c1.1-3.3-0.2-6.1-3.7-5.2c-1.3,0.3-1.5,3.7-1.5,3.7c0.5,2.3,0.3,2.9-1.2,1.5c-0.7-0.7-1.2-1.6-1.4-2.5
	c-1.2-0.7-2.4-1.6-3.4-2.7c-2.6-2.8-5.7-7.9-5.7-8.7c0-0.6,1.7-3.7,6.2-5.2c4.4-1.5,8.6,0.3,11,1c2.4,0.7,3.6-1.5,7.5-0.3
	s3.1,5.3,5,6.5c2.8,1.7,4.7-1.2,6-0.7C153.9,40.7,155.7,49,153,52.3z"/>
<path class="st10" d="M135.4,39.6c6.1,6.6-0.3,16.9-1.2,19.7c-0.2,0.7-0.4,1.4-0.4,2.1c-6.4,3.3-17.7-9.7-16.1-21.1
	c0.6-0.8,1.3-1.6,2.1-2.3C124.7,33.5,131.3,35.2,135.4,39.6z"/>
<path class="st11" d="M192.6,237.7c-2.3,3-2.5,8.5-4.7,11c-2.2,2.4-5.1,3.1-3,0c1.1-1.7,3-12.4,3-12.4s-7.7-4.1-16.6-9.2
	c0,0-2.9-3.2-0.5-7c2.4-4,6.1-2.7,6.1-2.7c6.5,6.3,17.1,15,17.8,15.6C195.5,233.8,194.9,234.7,192.6,237.7z M117.6,40.2
	c1.5,2.8,3.2,5.3,5.3,7.6c1,1.1,2.1,2,3.4,2.7c0.2,1,0.6,1.9,1.4,2.5c1.6,1.4,1.7,0.8,1.2-1.5c0,0,0.2-3.4,1.5-3.7
	c3.5-0.9,4.8,2,3.7,5.2c-0.6,1.8-2.5,2.7-2.7,3.2c-0.2,0.5,0.3,3.1,2.3,5c-0.3,2.9,0.4,6.6,1.4,7.2c0.9,0.4,1.9,0.6,2.8,0.8
	c2,6.7-11.6,16.4-20.3,14.6c-4.2-0.9-4.1-7.8,0.8-10.8c1.9-0.7,4-1.3,5.1-1.8c1.8-0.9-0.1-8.6-1-11s-4.6-0.1-7.7-4
	c-0.9-1.2-1.3-3-1.3-5c-0.8-0.6-1.5-1.1-1.5-1.5s0.9-1.3,2-2.3C114.9,44.8,116,42.4,117.6,40.2z M55.3,246.7
	c-3.1-2.7-9.2-3.1-11.4-4.8c-2.2-1.7-2.3-2.8,0.4-2c2.2,0.6,11.6,1.7,13,1.2c0.5-0.2,4.1-6.4,9.2-15.7c0,0,2.8-2.4,6.5,0.4
	c3.4,2.5,1.7,6.6,1.7,6.6c-7.3,9.1-14.3,17.8-14.8,18.1C59,251.1,58.4,249.4,55.3,246.7z"/>
<path class="st12" d="M137,115.3c-0.4,3.6-4.2,9-12.9,10.7c-13.7,2.7-15.7-3.7-15.7-3.7l0,0.1c-1.7-7.9-4.3-18.7-5-22.7
	c-1.4-8.1,10.5-23.2,12.2-24.9c0.8-0.7,1.8-1.3,2.8-1.6c-1.6,2.4-3.8,6.7,0.4,7.6c8.7,1.8,17.1-8.7,19-11.4c3.1,0.8,7.8,1.7,8.9,2.4
	c1.6,1-1.2,6.1-5.5,14.7C137.3,94.4,136.8,111,137,115.3z"/>
<path class="st13" d="M176.8,217.4l-5.6,9.7c-10.7-6-23.1-13.3-26.2-16.2c-9.2-8.8-19.2-49.5-19.2-49.5s-21.4,27.8-26.1,33.6
	s-5.3,12.8-9,17.4c-1.8,2.3-9,11.3-16,20.1l-8.3-7.1c15.3-28,44.1-84.4,43.4-94.6c-0.1-1.4-0.7-4.6-1.5-8.4l0-0.1
	c0,0,5.7,1,14.9-1.2c4.8-1.2,9.4-3.1,13.6-5.7c0,0.3,0,0.5,0.1,0.7c0.3,2.7,6.8,9.2,12,15.4c5.2,6.2,4.7,12.6,5,23.9
	s2.7,44.5,4.5,46.3c1.8,1.8,9.8,6.1,14.4,11.7C174.2,214.7,175.5,216.1,176.8,217.4z"/>
<path class="st8" d="M137.1,68.5c-1.3,0.6-8.6,11.8-9.5,23.9c-0.8,10.7,6.8,26.6,12.7,27.1c5.9,0.6,11-6,10.2-9.2
	c-0.8-3.2-7.2-8.3-8-11c-0.7-2.7,1-8,1-8s11.9,13.1,16.4,23.1s6.1,17.5,12.9,21.2c6.9,3.7,12.7,0.9,15.7-1.7c3-2.7,8-10.5,5.7-15.7
	c-2.3-5.2-7.2-4.3-8.5-7.2c-1.3-2.9,1.5-11.8-4.5-15.9c-5.9-4.1-9.2,0.5-11.5-1.2c-2.3-1.7-9.4-16.8-13.7-19.7
	c-4.3-2.9-13.6-5.4-15.9-6C139.3,67.9,138.1,68,137.1,68.5z"/>
<path class="st11" d="M85.8,105.1c-2.3,1.2-4.7,0-6.2-3c-1.5-3-3.8-11.8-4.5-13.9c-0.7-2.2,0.1-4.7,1.2-6.7c0.6-1.1,1.2-2.1,2-3l1,2
	c0,0,2.4-1.2,4-1c1.6,0.2,3.4,1.2,3.2,1.7s-1.9,0.2-2.7,0.3c-0.5,0-1.1,0.2-1.5,0.5c0,0,3.8,0.8,3.7,1.7c0,0.9-1.7,0.5-1.7,0.5
	s1,0.5,0.7,1.2s-1.6,0.2-2.5,0.3c-0.9,0-0.5,1.3-0.7,2.5c-0.2,1-0.5,1.7-0.5,1.7s3.5,6.2,5.2,8.7S88.1,103.8,85.8,105.1z"/>
<path class="st11" d="M179.9,134.7c0,0,3.9,6,4.5,8.7c0.5,2.1,0.5,4.3,0.2,6.5c-0.2,1,1.3,1.3,2.2-0.7c0.9-2,0.7-3.2,0.7-3.2
	s6.7,4.6,8.5,4c1.7-0.6-5.5-5.2-5.5-5.2s7.8,3.2,9.2,2.2s-2.7-2.2-2.7-2.2s1.7,0.4,2.2-0.5c0.5-0.9-2.9-1.2-5.2-2.5
	c-2.4-1.3-9.5-10.2-9.5-10.2L179.9,134.7z"/>
<path class="st5" d="M52.9,73.6c-1.1,1.2-1.7,0-1.7,0l-4.9-4.5c-1.7,1.6-4.4,2.4-7.7,1.5c-5.2-1.5-4.7-6.1-3.9-8.7s3.6-5.3,8.2-4.8
	c4.7,0.5,5.7,5.6,5.2,8.7c-0.1,0.5-0.3,1.1-0.5,1.5l4.8,4.1C52.4,71.4,54,72.4,52.9,73.6z M42.2,59.3c-2.8-0.3-5.9,1.7-5.8,4.8
	c0.1,3.1,2.3,4.9,5,4.8c2.7-0.2,4.9-2,5-4.8C46.5,61.3,45,59.6,42.2,59.3z"/>
</svg>
