<?xml version="1.0" encoding="UTF-8"?>
<svg width="32px" height="32px" viewBox="0 0 32 32" version="1.1" xmlns="http://www.w3.org/2000/svg" xmlns:xlink="http://www.w3.org/1999/xlink">
    <!-- Generator: Sketch 51.2 (57519) - http://www.bohemiancoding.com/sketch -->
    <title>icons/social/twitter/white</title>
    <desc>Created with Sketch.</desc>
    <defs></defs>
    <g id="icons/social/twitter/white" stroke="none" stroke-width="1" fill="none" fill-rule="evenodd">
        <g id="Icons/Social/Facebook"></g>
        <path d="M24.00008,11.5392 C23.41144,11.80032 22.77872,11.97672 22.1148,12.05608 C22.79248,11.64984 23.31304,11.00656 23.55808,10.24 C22.92376,10.61624 22.22128,10.88936 21.47352,11.03656 C20.8748,10.39856 20.02168,10 19.07752,10 C17.26472,10 15.79488,11.46968 15.79488,13.28248 C15.79488,13.53976 15.82392,13.79032 15.87984,14.03056 C13.15168,13.89368 10.73296,12.5868 9.114,10.6008 C8.83144,11.0856 8.66952,11.64944 8.66952,12.25104 C8.66952,13.38992 9.24904,14.39464 10.12984,14.98328 C9.59168,14.96624 9.0856,14.81856 8.64304,14.57272 C8.64272,14.5864 8.64272,14.60016 8.64272,14.614 C8.64272,16.2044 9.77424,17.53112 11.27592,17.83272 C11.00048,17.90776 10.71048,17.94784 10.41104,17.94784 C10.19944,17.94784 9.99384,17.9272 9.79336,17.88896 C10.2112,19.19304 11.42336,20.14216 12.85984,20.16856 C11.7364,21.04904 10.32104,21.57376 8.78304,21.57376 C8.51808,21.57376 8.2568,21.55824 8,21.52784 C9.45272,22.45928 11.17824,23.0028 13.03192,23.0028 C19.06976,23.0028 22.37152,18.00088 22.37152,13.66304 C22.37152,13.52072 22.36832,13.3792 22.362,13.23832 C23.00352,12.7756 23.56,12.19744 24.00008,11.5392 L24.00008,11.5392 Z" id="Shape-5" fill="#000000"></path>
    </g>
</svg>